<?xml version="1.0" encoding="UTF-8" standalone="no"?>
<!DOCTYPE svg PUBLIC "-//W3C//DTD SVG 1.1//EN" "http://www.w3.org/Graphics/SVG/1.1/DTD/svg11.dtd">
<svg version="1.1" xmlns="http://www.w3.org/2000/svg" xmlns:xlink="http://www.w3.org/1999/xlink" viewBox="-500 -500 1000 1000">
	<defs>
		<filter id="Retlif" color-interpolation-filters="sRGB">
			<feGaussianBlur in="SourceAlpha" stdDeviation="2.3" result="v666"/>
			<feMorphology radius="6.6" in="SourceAlpha"/>
			<feGaussianBlur stdDeviation="8.9"/>
			<feColorMatrix values="1 0 0 0 0 0 1 0 0 0 0 0 1 0 0 0 0 0 0.3 0" result="v777"/>
			<feComposite operator="out" in="v666" in2="v777"/>
			<feGaussianBlur stdDeviation="1.7" result="v888"/>
			<feDiffuseLighting surfaceScale="10">
				<feDistantLight elevation="45" azimuth="225"/>
			</feDiffuseLighting>
			<feBlend mode="multiply" in2="SourceGraphic"/>
			<feComposite operator="in" in2="SourceAlpha" result="v999"/>
			<feSpecularLighting specularExponent="17.9" surfaceScale="5" in="v888">
				<feDistantLight elevation="45" azimuth="225"/>
			</feSpecularLighting>
			<feComposite operator="atop" in2="v999"/>
		</filter>
	</defs>

	<g id="Kruhotvar-29">
		<title>Kruhotvar XXIX vo farbe, by Adam Stanislav</title>

		<g id="Sada">
			<g id="Mnoho">
				<g id="Trochu">
					<g id="Tvary">
						<g id="Tvar">
							<g id="L">
								<path fill="#9f5" d="m1.14 38.92c4.9743 4.072-1.8199 8.8902-6.195 7.95-27.698-2.5874-53.673-16.334-74.026-34.93-35.269-32.555-53.06-80.699-55.089-127.96 3.2856-8.2348 11.344-0.77683 9.063 5.283-1.849 60.37 35.589 120.17 91.488 143.62 9.8204 3.8581 20.169 8.1868 30.882 7.877 0.31862-1.6343 2.3969-2.5541 3.877-1.849z" filter="url(#Retlif)"/>
								<path fill="#6f0" d="m-195.54-153.22c0.0261 0.43382 4.8433-4.6824 7.684-7.436 22.975-24.933 50.039-45.473 74.345-69.017 29.926-26.65 60.468-54.312 97.485-70.727 17.835-7.6288 39.802-10.801 56.926 0.358 10.849 6.56 14.007 20.437 12.134 32.292-0.6787 9.5608-18.465 2.1253-26.35 4.5266-11.441 3.4252-2.9796-11.293-7.0934-16.049-24.207-11.066-50.876 6.7456-70.908 19.311-36.373 26.126-66.269 59.805-99.277 89.818-11.914 11.171-21.278 25.122-34.19 35.142-3.0599 2.7522-8.8835 2.0462-10.675 5.671-6.9091 23.519-9.6488 48.233-10.065 72.695-0.67856 5.2353 2.0167 18.166 2.674 18.645 11.491 11.281 16.209 28.292 14.81 44.255 1.1654 7.0246-20.204 6.843-14.73-3.5126 0.25615-11.562-4.8504-22.734-13.645-30.203-8.8882-12.884-7.8074-29.722-8.505-44.659 0.60598-23.514 1.9388-47.951 11.438-69.791 3.1263-7.5161 11.38-8.9176 17.943-11.319z" filter="url(#Retlif)"/>
								<path fill="#4a0" d="m143.48-233.26c17.135 9.4482 38.387 9.5717 54.37 21.237 6.103 8.641 7.4286 19.8 12.167 29.197 16.755 43.626 38.653 85.329 52.17 130.14 2.524 13.658 8.0579 27.157 7.734 41.19-0.86466 9.5625-4.628 18.581-6.187 27.99-4.4555 7.5117-11.281-0.52991-9.75-6.433 0.0195-8.105 2.2067-17.965-0.691-25.127-3.8266-8.9384-9.6453-20.829-13.767-30.797-18.643-47.889-26.78-99.598-48.87-146.21-1.4083-4.5339-4.5332-7.8602-9.456-6.504-14.193 0.36097-26.579 8.7226-39.729 12.206-20.373-0.44558-29.565-29.511-13.21-41.666 4.1845-3.3833 9.8296-5.7916 15.219-5.228z" filter="url(#Retlif)"/>
								<path fill="#250" d="m239.26-292.26c0.27219-0.15347-5.9656-6.0816-8.87-7.9-12.356-9.3072-27.04-16.412-35.338-30.095-4.5674-5.8203-7.9925-13.722-12.226-18.047-21.916-18.86-45.684-35.987-70.3-50.959-0.80727-0.90358-10.439-0.10114-14.862 1.084-4.7184 1.123-11.708 1.7337-14.697-1.774-8.0181-4.7103-19.8-5.7599-29.443-7.052-16.682-2.737-34.415-1.2347-50.47-7.105-11.584-5.0275-14.691-19.176-12.628-30.595 1.1607-4.5025 1.2235-8.2713-3.171-10.61-6.8258-7.8262-9.5659-20.119-5.4674-29.633 7.3131-16.163 33.823-10.783 34.724 6.7398-0.34636 3.05-0.82571 5.5098 1.698 7.751 7.4951 11.587 0.44538 25.525-3.518 36.444 0.17189 1.4672-2.8247-0.71127-0.082 1.799 23.148 9.8244 49.573 10.748 71.865 22.855 2.7566 2.7765 5.1427 3.4544 9.052 2.661 9.0652-1.1377 19.559-2.7685 26.735 4.503 22.72 16.227 46.541 31.256 67.348 49.945 9.3031 13.438 18.018 28.645 33.478 35.944 8.5952 6.4236 19.794 10.953 25.533 20.469 19.192 39.137 9.1252 86.843 32.498 124.44 14.467 20.698 39.456 31.151 53.504 52.318 20.72 29.573 30.618 65.337 36.646 100.53 1.6749 15.499 2.3536 31.497 8.375 46.059 0.79857 19.779-5.8289 39.039-7.962 58.578 0.54103 2.9185-1.9664 9.3645-4.095 3.963 0.44509-20.213 5.9068-40.817 4.338-60.785-0.027-0.86281-1.0291-1.9077-2.275-4.897-8.5476-20.239-7.6307-42.992-15.868-63.391-10.053-29.611-21.401-60.6-43.903-83.233-17.796-16.179-39.894-30.439-48.069-54.33-14.705-36.186-7.055-77.127-21.478-113.31-0.31517-0.73651-0.8327-1.8624-1.072-2.362z" filter="url(#Retlif)"/>
							</g>
							<use xlink:href="#L" transform="scale(-1,1)"/>
						</g>
						<use xlink:href="#Tvar" transform="rotate(180)"/>
					</g>
					<use xlink:href="#Tvary" transform="rotate(90)"/>
				</g>
				<use xlink:href="#Trochu" transform="rotate(45)"/>
			</g>
			<use xlink:href="#Mnoho" transform="rotate(22.5)"/>
		</g>
		<use xlink:href="#Sada" transform="rotate(11.25)"/>
	</g>
</svg>
